# xmcd
#
# Track frame offsets: 
#        151
#        14217
#        28156
#        41886
#        55269
#        67178
#        81047
#        94224
#        108496
#        123003
#        137080
#        151637
#        165508
#        179285
#        193784
#        207970
#        222052
#        236215
#
# Disc length: 3368 seconds
#
# Revision: 0
# Processed by: cddbd v1.4PL0 Copyright (c) Steve Scherf et al.
# Submitted via: ExactAudioCopy v0.90b4
#
DISCID=020d2612
DTITLE=Leadbelly Feat. The Golden Gate Jubilee Quartet - The Best Of
DYEAR=1900
DGENRE=Acoustic
TTITLE0=Alabama Bound
TTITLE1=Gray Goose
TTITLE2=Stewball
TTITLE3=Can't You Line 'Em
TTITLE4=Rock Island Line
TTITLE5=Pick A Bale Of Cotton
TTITLE6=Good Morning Blues
TTITLE7=The Red Cross Store Blues
TTITLE8=Alberta
TTITLE9=You Can't Loose - A Me Cholly
TTITLE10=Easy Rider
TTITLE11=New York City
TTITLE12=Roberta
TTITLE13=I'm On My Last Go-Round
TTITLE14=Whoa, Back Buck
TTITLE15=Midnight Special
TTITLE16=Four Day Worry Blues
TTITLE17=Irene Goodnight
EXTD=
EXTT0=
EXTT1=
EXTT2=
EXTT3=
EXTT4=
EXTT5=
EXTT6=
EXTT7=
EXTT8=
EXTT9=
EXTT10=
EXTT11=
EXTT12=
EXTT13=
EXTT14=
EXTT15=
EXTT16=
EXTT17=
PLAYORDER=
